:version 1.10
:name ASF
:units
  mass 1
  length 1
  angle deg
:documentation
  ASF file generated by Kaydara
:root
  axis xyz
  order  tx ty tz rx ry rz
  position 0 0 0
  orientation 0 0 0
:bonedata
  begin
    id 1
    name RightUpLegDummy
    direction -0.718183 -0.695806 0.00816078
    length 4.904
    axis 0 0 0 xyz
  end
  begin
    id 2
    name RightUpLeg
    direction 3.53373e-006 -0.995788 0.0916898
    length 17.4976
    axis -3.49089 -0.000906625 0.000286804 xyz
    dof rx ry rz
  end
  begin
    id 3
    name RightLeg
    direction 0.00371092 -0.995096 -0.0988419
    length 16.5821
    axis 3.68512 0.0193738 -0.131023 xyz
    dof rx ry rz
  end
  begin
    id 4
    name RightFoot
    direction 0.00079151 -0.46099 0.887405
    length 3.77069
    axis 4.81691e-005 -0.120479 -0.188788 xyz
    dof rx ry rz
  end
  begin
    id 5
    name RightToes
    direction 0 0 0
    length 0
    axis 0 0 0 xyz
    dof rx ry rz
  end
  begin
    id 6
    name SpineDummy
    direction 8.3039e-015 1 4.57515e-016
    length 4.6813
    axis 0 0 0 xyz
  end
  begin
    id 7
    name Spine
    direction -3.15643e-008 0.999988 0.00495137
    length 10.1015
    axis -0.001389 0.000121418 2.40972e-006 xyz
    dof rx ry rz
  end
  begin
    id 8
    name Spine1
    direction 0 0 0
    length 0
    axis -0.001389 0.000121451 1.30017e-006 xyz
    dof rx ry rz
  end
  begin
    id 9
    name HEadDummy
    direction -1.99912e-008 0.999999 0.00127422
    length 3.43865
    axis -0.001389 0.000121451 1.30017e-006 xyz
  end
  begin
    id 10
    name HEad
    direction 0 0 0
    length 0
    axis 0 0 0 xyz
    dof rx ry rz
  end
  begin
    id 11
    name LeftShoulder1Dummy
    direction 0.998891 -0.0402509 -0.0244456
    length 3.5433
    axis -0.001389 0.000121451 1.30017e-006 xyz
  end
  begin
    id 12
    name LeftShoulder1
    direction 0.99951 -0.000327763 0.0313091
    length 4.05031
    axis -0.001389 0.000121451 1.30017e-006 xyz
    dof rx ry rz
  end
  begin
    id 13
    name LeftArm
    direction 0.998561 -0.00100056 -0.0536182
    length 10.3537
    axis -23.1894 0.134784 0.967509 xyz
    dof rx ry rz
  end
  begin
    id 14
    name LeftForeArm
    direction 0.998903 0.00866432 0.046012
    length 8.70632
    axis -9.91835 -0.06569 -0.177794 xyz
    dof rx ry rz
  end
  begin
    id 15
    name LeftHand
    direction 0 0 0
    length 0
    axis 0 0 0 xyz
    dof rx ry rz
  end
  begin
    id 16
    name RightShoulderDummy
    direction -0.998891 -0.0402509 -0.0244414
    length 3.5433
    axis -0.001389 0.000121451 1.30017e-006 xyz
  end
  begin
    id 17
    name RightShoulder
    direction -0.99951 -0.000327807 0.0313133
    length 4.05031
    axis 0.215806 0.000203643 -0.0068026 xyz
    dof rx ry rz
  end
  begin
    id 18
    name RightArm
    direction -0.998573 -0.000999564 -0.053403
    length 10.3947
    axis -23.2009 -0.134239 -0.964101 xyz
    dof rx ry rz
  end
  begin
    id 19
    name RightForeArm
    direction -0.998898 0.00868028 0.0461306
    length 8.68355
    axis -9.92322 0.0658061 0.178868 xyz
    dof rx ry rz
  end
  begin
    id 20
    name RightHand
    direction 0 0 0
    length 0
    axis 0 0 0 xyz
    dof rx ry rz
  end
  begin
    id 21
    name LeftUpLegDummy
    direction 0.718183 -0.695806 0.00816078
    length 4.904
    axis 0 0 0 xyz
  end
  begin
    id 22
    name LeftUpLeg
    direction -6.81752e-006 -0.995793 0.0916337
    length 17.4976
    axis -3.48766 0.00143442 -0.000524262 xyz
    dof rx ry rz
  end
  begin
    id 23
    name LeftLeg
    direction -0.00601358 -0.995091 -0.0987824
    length 16.5821
    axis 3.68178 -0.00654042 -0.000285133 xyz
    dof rx ry rz
  end
  begin
    id 24
    name LeftFoot
    direction -0.00417578 -0.460984 0.887399
    length 3.77069
    axis 1.87233e-006 4.66016e-005 -8.6538e-006 xyz
    dof rx ry rz
  end
  begin
    id 25
    name LeftToes
    direction 0 0 0
    length 0
    axis 0 0 0 xyz
    dof rx ry rz
  end
:hierarchy
  begin
    root RightUpLegDummy SpineDummy LeftUpLegDummy
    RightUpLegDummy RightUpLeg
    RightUpLeg RightLeg
    RightLeg RightFoot
    RightFoot RightToes
    SpineDummy Spine
    Spine Spine1
    Spine1 HEadDummy LeftShoulder1Dummy RightShoulderDummy
    HEadDummy HEad
    LeftShoulder1Dummy LeftShoulder1
    LeftShoulder1 LeftArm
    LeftArm LeftForeArm
    LeftForeArm LeftHand
    RightShoulderDummy RightShoulder
    RightShoulder RightArm
    RightArm RightForeArm
    RightForeArm RightHand
    LeftUpLegDummy LeftUpLeg
    LeftUpLeg LeftLeg
    LeftLeg LeftFoot
    LeftFoot LeftToes
  end

:SAMPLES-PER-SECOND 30
:FULLY-SPECIFIED
:DEGREES
280
root  13.7692 40.5965 9.41987 151.517 85.4263 154.635
RightUpLeg  1.99962 -12.7835 -14.077
RightLeg  6.69932 -10.9305 2.3276
RightFoot  0.313278 -0.461327 4.53535
RightToes  0.000481921 0.542163 -0.142578
Spine  -0.138898 4.04782 8.87776
Spine1  14.5157 7.48777 -10.2895
HEad  10.9675 -13.301 7.60309
LeftShoulder1  10.1064 -15.8172 -45.6034
LeftArm  -5.52885 7.87984 -27.5024
LeftForeArm  174.016 -55.0321 -166.001
LeftHand  -0.25398 0.0180481 5.50724
RightShoulder  2.25765 7.35226 13.9099
RightArm  -27.8634 72.2913 38.4239
RightForeArm  -13.6148 -5.99013 2.50183
RightHand  -2.98638 11.3898 -20.9112
LeftUpLeg  1.29797 6.86043 6.90941
LeftLeg  1.73736 11.7 -3.32794
LeftFoot  3.2023 0.595296 -4.84318
LeftToes  1.06245e-005 4.65869e-005 -8.65517e-006
281
root  13.7792 40.5967 9.41565 151.702 85.3327 154.793
RightUpLeg  1.99894 -12.8219 -14.1206
RightLeg  6.73093 -10.9911 2.31339
RightFoot  0.288407 -0.464292 4.56236
RightToes  0.000481921 0.542163 -0.142578
Spine  -0.565802 4.10242 8.74759
Spine1  15.179 7.51743 -10.073
HEad  10.8236 -13.2318 7.47453
LeftShoulder1  10.1379 -15.8562 -45.6552
LeftArm  -5.68524 7.65025 -27.3108
LeftForeArm  173.798 -55.3089 -165.845
LeftHand  -0.25398 0.0180481 5.50724
RightShoulder  2.19141 7.20909 13.5357
RightArm  -27.8357 72.7936 38.892
RightForeArm  -13.8696 -5.96732 2.40392
RightHand  -3.05566 11.527 -21.2056
LeftUpLeg  1.29197 6.84253 6.86993
LeftLeg  1.6886 11.6518 -3.35302
LeftFoot  3.2246 0.59493 -4.83176
LeftToes  1.06245e-005 4.65869e-005 -8.65517e-006
282
root  13.7909 40.5969 9.40953 151.906 85.2439 154.957
RightUpLeg  2.00298 -12.8209 -14.1504
RightLeg  6.7175 -11.0892 2.29711
RightFoot  0.281373 -0.468382 4.60301
RightToes  0.000481921 0.542163 -0.142578
Spine  -0.912789 4.14087 8.62626
Spine1  15.6953 7.53983 -9.91518
HEad  10.6612 -13.2788 7.48737
LeftShoulder1  10.1544 -15.8619 -45.718
LeftArm  -5.80079 7.34636 -27.0636
LeftForeArm  173.622 -55.4419 -165.764
LeftHand  -0.25398 0.0180481 5.50724
RightShoulder  2.14885 7.06739 13.3945
RightArm  -27.8202 73.0395 39.1924
RightForeArm  -15.3747 -5.93612 2.42211
RightHand  -3.15206 11.6457 -21.7016
LeftUpLeg  1.26341 6.80415 6.81742
LeftLeg  1.65743 11.6223 -3.35205
LeftFoot  3.23943 0.596698 -4.8543
LeftToes  1.06245e-005 4.65869e-005 -8.65517e-006
283
root  13.8053 40.5974 9.40183 152.202 85.1821 155.216
RightUpLeg  2.02758 -12.7934 -14.1576
RightLeg  6.67243 -11.1743 2.28168
RightFoot  0.286516 -0.472435 4.64013
RightToes  0.000481921 0.542163 -0.142578
Spine  -1.08691 4.13868 8.59051
Spine1  15.9373 7.54923 -9.91057
HEad  10.5488 -13.3493 7.55387
LeftShoulder1  10.1257 -15.8215 -45.6831
LeftArm  -5.89417 7.17651 -27.028
LeftForeArm  173.585 -55.4147 -165.774
LeftHand  -0.25398 0.0180481 5.50724
RightShoulder  2.14398 6.9815 13.5265
RightArm  -27.9518 73.1822 39.0334
RightForeArm  -15.4782 -5.9341 2.42511
RightHand  -3.07242 11.3746 -21.4995
LeftUpLeg  1.23942 6.76731 6.77923
LeftLeg  1.64702 11.594 -3.3313
LeftFoot  3.2356 0.598553 -4.87884
LeftToes  1.06245e-005 4.65869e-005 -8.65517e-006
284
root  13.8208 40.5985 9.39328 152.486 85.1708 155.487
RightUpLeg  2.07874 -12.7597 -14.1494
RightLeg  6.60229 -11.2076 2.28282
RightFoot  0.307758 -0.475016 4.65228
RightToes  0.000481921 0.542163 -0.142578
Spine  -1.00343 4.11205 8.64138
Spine1  15.8093 7.54947 -10.0302
HEad  10.6243 -13.3748 7.53419
LeftShoulder1  10.0872 -15.7729 -45.6221
LeftArm  -5.94812 7.2335 -27.1814
LeftForeArm  173.741 -55.3127 -165.838
LeftHand  -0.25398 0.0180481 5.50724
RightShoulder  2.15417 6.94322 13.7163
RightArm  -28.2036 73.2578 38.7237
RightForeArm  -14.2878 -5.94691 2.33916
RightHand  -2.91108 10.9526 -20.9234
LeftUpLeg  1.24332 6.76531 6.78069
LeftLeg  1.65189 11.5729 -3.32485
LeftFoot  3.22009 0.597691 -4.86165
LeftToes  1.06245e-005 4.65869e-005 -8.65517e-006
285
root  13.8325 40.601 9.38396 152.648 85.1912 155.646
RightUpLeg  2.13957 -12.7133 -14.1377
RightLeg  6.49754 -11.2368 2.2983
RightFoot  0.357434 -0.477044 4.65462
RightToes  0.000481921 0.542163 -0.142578
Spine  -0.824434 4.08807 8.63786
Spine1  15.5831 7.51377 -10.0349
HEad  10.7464 -13.3444 7.40798
LeftShoulder1  10.0894 -15.7426 -45.7071
LeftArm  -5.98979 7.33856 -27.2674
LeftForeArm  173.937 -55.2152 -165.903
LeftHand  -0.25398 0.0180481 5.50724
RightShoulder  2.15193 6.915 13.754
RightArm  -28.4503 73.2724 38.4854
RightForeArm  -13.6315 -5.9494 2.26777
RightHand  -2.86421 10.8553 -20.7179
LeftUpLeg  1.2609 6.78695 6.79993
LeftLeg  1.65041 11.5768 -3.34315
LeftFoot  3.22048 0.593932 -4.79988
LeftToes  1.06245e-005 4.65869e-005 -8.65517e-006
286
root  13.8388 40.605 9.37381 152.441 85.2315 155.421
RightUpLeg  2.16639 -12.6564 -14.1347
RightLeg  6.38192 -11.2689 2.30711
RightFoot  0.425107 -0.480246 4.67481
RightToes  0.000481921 0.542163 -0.142578
Spine  -0.7723 4.07449 8.54105
Spine1  15.588 7.45561 -9.87626
HEad  10.6668 -13.2888 7.28969
LeftShoulder1  10.1175 -15.725 -45.8825
LeftArm  -6.06777 7.31458 -27.1965
LeftForeArm  173.965 -55.1625 -165.932
LeftHand  -0.25398 0.0180481 5.50724
RightShoulder  2.14211 6.90132 13.6801
RightArm  -28.7379 73.3106 38.092
RightForeArm  -14.0036 -5.94573 2.29504
RightHand  -2.92007 11.017 -20.9061
LeftUpLeg  1.27331 6.79689 6.79335
LeftLeg  1.61682 11.6388 -3.37173
LeftFoot  3.25163 0.58971 -4.73149
LeftToes  1.06245e-005 4.65869e-005 -8.65517e-006
287
root  13.8433 40.609 9.36397 151.726 85.3089 154.655
RightUpLeg  2.12284 -12.6099 -14.1383
RightLeg  6.30074 -11.2408 2.29923
RightFoot  0.481289 -0.484043 4.70456
RightToes  0.000481921 0.542163 -0.142578
Spine  -0.829622 4.06166 8.48837
Spine1  15.745 7.42842 -9.78772
HEad  10.4336 -13.2183 7.2595
LeftShoulder1  10.1233 -15.7187 -45.925
LeftArm  -6.15507 7.25329 -27.1297
LeftForeArm  173.885 -55.1676 -165.923
LeftHand  -0.25398 0.0180481 5.50724
RightShoulder  2.14815 6.9316 13.678
RightArm  -29.1541 73.4155 37.4063
RightForeArm  -14.378 -5.94809 2.35789
RightHand  -2.94373 11.0389 -21.0412
LeftUpLeg  1.27249 6.78813 6.7557
LeftLeg  1.55281 11.7723 -3.40016
LeftFoot  3.29599 0.587389 -4.69328
LeftToes  1.06245e-005 4.65869e-005 -8.65517e-006
288
root  13.8487 40.6115 9.35526 150.791 85.4278 153.641
RightUpLeg  2.02557 -12.5675 -14.1252
RightLeg  6.24753 -11.1539 2.28372
RightFoot  0.523794 -0.486756 4.71274
RightToes  0.000481921 0.542163 -0.142578
Spine  -0.884005 4.0449 8.56478
Spine1  15.8399 7.43951 -9.86306
HEad  10.2931 -13.0946 7.23148
LeftShoulder1  10.1076 -15.737 -45.8062
LeftArm  -6.18005 7.30809 -27.186
LeftForeArm  173.928 -55.2316 -165.894
LeftHand  -0.25398 0.0180481 5.50724
RightShoulder  2.16159 6.96495 13.7472
RightArm  -29.5493 73.5505 36.7796
RightForeArm  -14.1243 -5.95501 2.36482
RightHand  -2.91528 10.833 -21.0981
LeftUpLeg  1.25249 6.78319 6.72434
LeftLeg  1.48995 11.9395 -3.42824
LeftFoot  3.32606 0.58697 -4.68527
LeftToes  1.06245e-005 4.65869e-005 -8.65517e-006
289
root  13.855 40.6139 9.34603 150.006 85.5726 152.769
RightUpLeg  1.92649 -12.4979 -14.075
RightLeg  6.16534 -11.0864 2.26775
RightFoot  0.584866 -0.48858 4.69909
RightToes  0.000481921 0.542163 -0.142578
Spine  -0.970035 4.03348 8.67663
Spine1  15.9344 7.43923 -9.90246
HEad  10.303 -12.9179 7.09941
LeftShoulder1  10.1145 -15.7776 -45.7389
LeftArm  -6.14377 7.41439 -27.2676
LeftForeArm  174.094 -55.3319 -165.857
LeftHand  -0.25398 0.0180481 5.50724
RightShoulder  2.14825 6.91761 13.7094
RightArm  -29.6491 73.6534 36.6331
RightForeArm  -13.5512 -5.95943 2.31591
RightHand  -2.91448 10.6201 -21.3579
LeftUpLeg  1.2178 6.79705 6.72644
LeftLeg  1.45074 12.0994 -3.45665
LeftFoot  3.33389 0.586515 -4.6772
LeftToes  1.06245e-005 4.65869e-005 -8.65517e-006
290
root  13.8627 40.6174 9.33412 149.227 85.7383 151.912
RightUpLeg  1.85216 -12.4036 -14.006
RightLeg  6.03774 -11.0469 2.2508
RightFoot  0.674287 -0.49123 4.69732
RightToes  0.000481921 0.542163 -0.142578
Spine  -1.11295 4.02105 8.72575
Spine1  16.0991 7.39822 -9.81059
HEad  10.3221 -12.7672 6.97235
LeftShoulder1  10.1478 -15.8088 -45.8179
LeftArm  -6.11803 7.44358 -27.2335
LeftForeArm  174.174 -55.4032 -165.827
LeftHand  -0.25398 0.0180481 5.50724
RightShoulder  2.11998 6.83323 13.5938
RightArm  -29.417 73.642 36.8675
RightForeArm  -13.0033 -5.96597 2.28395
RightHand  -2.94558 10.5281 -21.6936
LeftUpLeg  1.1928 6.82166 6.74633
LeftLeg  1.42684 12.2654 -3.48455
LeftFoot  3.32877 0.584799 -4.64994
LeftToes  1.06245e-005 4.65869e-005 -8.65517e-006
291
root  13.8729 40.6209 9.32047 147.92 85.9216 150.548
RightUpLeg  1.79397 -12.3373 -13.9718
RightLeg  5.92264 -10.9408 2.24231
RightFoot  0.752675 -0.49506 4.7208
RightToes  0.000481921 0.542163 -0.142578
Spine  -1.20587 3.98642 8.69448
Spine1  16.1941 7.3187 -9.67826
HEad  10.2632 -12.6586 7.00349
LeftShoulder1  10.1757 -15.8111 -45.9422
LeftArm  -6.1471 7.40943 -27.0812
LeftForeArm  174.088 -55.3952 -165.824
LeftHand  -0.25398 0.0180481 5.50724
RightShoulder  2.12231 6.85013 13.5815
RightArm  -29.0471 73.4808 37.087
RightForeArm  -12.399 -5.98467 2.31703
RightHand  -2.94138 10.5181 -21.6769
LeftUpLeg  1.20491 6.8397 6.74829
LeftLeg  1.40049 12.4714 -3.51262
LeftFoot  3.31824 0.582868 -4.61979
LeftToes  1.06245e-005 4.65869e-005 -8.65517e-006
292
root  13.8836 40.6228 9.30834 145.94 86.1024 148.542
RightUpLeg  1.74762 -12.3345 -14.0012
RightLeg  5.86205 -10.7228 2.26096
RightFoot  0.792015 -0.497962 4.73887
RightToes  0.000481921 0.542163 -0.142578
Spine  -1.1729 3.92065 8.59304
Spine1  16.1025 7.19638 -9.53836
HEad  10.2289 -12.4328 7.07119
LeftShoulder1  10.1888 -15.8007 -46.029
LeftArm  -6.20496 7.41011 -26.9354
LeftForeArm  173.961 -55.3406 -165.842
LeftHand  -0.25398 0.0180481 5.50724
RightShoulder  2.15218 6.97568 13.6252
RightArm  -28.461 73.1275 37.3797
RightForeArm  -11.9354 -6.01383 2.42927
RightHand  -2.90411 10.5381 -21.3896
LeftUpLeg  1.26215 6.84285 6.72167
LeftLeg  1.3587 12.708 -3.54259
LeftFoot  3.30575 0.58232 -4.61164
LeftToes  1.06245e-005 4.65869e-005 -8.65517e-006
293
root  13.8938 40.6246 9.299 143.719 86.2781 146.308
RightUpLeg  1.71834 -12.3569 -14.0481
RightLeg  5.8024 -10.4716 2.30769
RightFoot  0.829158 -0.498182 4.7212
RightToes  0.000481921 0.542163 -0.142578
Spine  -1.10876 3.84593 8.43557
Spine1  15.9125 7.0386 -9.33708
HEad  10.4162 -11.9285 6.92577
LeftShoulder1  10.2038 -15.8008 -46.0989
LeftArm  -6.24764 7.47822 -26.9152
LeftForeArm  173.864 -55.3177 -165.846
LeftHand  -0.25398 0.0180481 5.50724
RightShoulder  2.16707 7.073 13.5724
RightArm  -27.2002 72.2538 38.3118
RightForeArm  -12.7622 -6.14578 2.66355
RightHand  -2.91735 10.5644 -21.4491
LeftUpLeg  1.3505 6.83925 6.69518
LeftLeg  1.28107 12.9463 -3.57149
LeftFoot  3.29947 0.583167 -4.62563
LeftToes  1.06245e-005 4.65869e-005 -8.65517e-006
294
root  13.9091 40.6295 9.29057 141.572 86.4839 144.123
RightUpLeg  1.69879 -12.3358 -14.0361
RightLeg  5.658 -10.2736 2.35824
RightFoot  0.914478 -0.497003 4.68241
RightToes  0.000481921 0.542163 -0.142578
Spine  -1.13335 3.78924 8.2553
Spine1  15.7291 6.88673 -9.11437
HEad  10.8949 -11.2143 6.62531
LeftShoulder1  10.221 -15.8056 -46.1674
LeftArm  -6.26619 7.58701 -27.0115
LeftForeArm  173.783 -55.3438 -165.826
LeftHand  -0.25398 0.0180481 5.50724
RightShoulder  2.19281 7.12572 13.7274
RightArm  -25.1782 70.2828 39.7814
RightForeArm  -16.0864 -5.34417 3.29205
RightHand  -3.04134 10.717 -22.1159
LeftUpLeg  1.44703 6.8441 6.70312
LeftLeg  1.15409 13.1888 -3.60055
LeftFoot  3.30608 0.58445 -4.6468
LeftToes  1.06245e-005 4.65869e-005 -8.65517e-006
